<svg xmlns="http://www.w3.org/2000/svg" viewBox="0 0 578.59 326"><defs><style>.cls-1{fill:#fff;}</style></defs><title>Asset 2</title><g id="Layer_2" data-name="Layer 2"><g id="Capa_1" data-name="Capa 1"><path class="cls-1" d="M6,99.5H6A217.53,217.53,0,0,0,50.18,231.34L153.84,63.56,51,0A132.5,132.5,0,0,0,6,99.5"/><path class="cls-1" d="M163.84,70.28,57.39,241.92c39.38,46,97,75.53,161.8,76.72V105Z"/><path class="cls-1" d="M51.57,254.07,7.11,326H172c-36.19-5.36-96.87-40.76-120.41-71.93"/><path class="cls-1" d="M43.55,243.1C19.3,217.4,0,166.13,0,153.88V313.26Z"/><path class="cls-1" d="M278.12,196.5h5.66c-.42,7.19-2.22,12.73-5.44,16.62S270.69,219,265,219q-20.18,0-20.16-32.62T265,153.71q9.1,0,13.88,5.83,4.23,5.22,4.24,13.62H277.5q0-6.63-3.26-10.66a11.21,11.21,0,0,0-9.2-4q-14.51,0-14.5,27.85T265,214.18a10.8,10.8,0,0,0,9.23-4.68q3.42-4.69,3.85-13"/><path class="cls-1" d="M302.44,154.77h5.3v9h-5.3Zm0,16.18h5.3v46.94h-5.3Z"/><path class="cls-1" d="M352.57,202.33h5.29c-.4,5.07-1.94,9.11-4.59,12.12a13.36,13.36,0,0,1-10.52,4.5Q327,219,327,194.38t16.13-24.49q7.77,0,11.42,5.52t3.66,17.29v1.94H332.67v2.21q0,17.68,10,17.69,8.58,0,9.91-12.21m-19.9-12.11h19.9q-.1-8.57-2.56-12.38-2.38-3.53-7.39-3.53c-3.35,0-5.78,1.18-7.31,3.53q-2.55,3.81-2.64,12.38"/><path class="cls-1" d="M377.23,217.89V171H382v6.54h.17q3.88-7.61,12-7.6,12,0,12,12.55v35.45h-5.31V183.94q0-9.63-8-9.63a9.37,9.37,0,0,0-7.52,3.32,13,13,0,0,0-2.83,8.7v31.56Z"/><path class="cls-1" d="M450,202.33h5.31q-.62,7.6-4.55,12.12a13.14,13.14,0,0,1-10.39,4.5q-15.74,0-15.73-24.57t16.17-24.49q13.71,0,14.5,15H450q-.87-10.62-9.19-10.61a8.31,8.31,0,0,0-7.43,3.8q-3.09,4.86-3.09,16.36,0,11.92,3.19,16.62a7.51,7.51,0,0,0,6.8,3.45q8.42,0,9.72-12.21"/><path class="cls-1" d="M474,154.77h5.3v9H474ZM474,171h5.3v46.94H474Z"/><path class="cls-1" d="M504.89,184.92h-5.31q0-15,14.5-15,13.27,0,13.27,12.46v27.76c0,2.6.91,3.89,2.73,3.89h1.51v3.89a7.05,7.05,0,0,1-2.48.53c-2.29,0-4-.35-5-1.06-1.23-.88-1.86-2.47-1.86-4.77V211h-.17Q519.39,219,510,219q-11.94,0-11.94-13.26,0-10.33,9.46-13l10-2.83q3.09-.88,4-2.57a14.52,14.52,0,0,0,.53-4.86q0-8.13-8.13-8.13-9,0-9,10.61M522,201.27v-9.9h-.18q-.61,1.77-5.66,3.1l-4.42,1.15q-8,2.12-8,9.72a10.46,10.46,0,0,0,2,6.68,6.55,6.55,0,0,0,5.44,2.52,9.81,9.81,0,0,0,7.91-3.54q3-3.54,3-9.73"/><path class="cls-1" d="M244.4,294.26l18.66-63.13h7.08l18.65,63.13h-6l-5.13-18.39h-22.1l-5.13,18.39Zm12.39-23.16h19.62l-9.72-35.54h-.18Z"/><path class="cls-1" d="M302.65,309.82v-62.5h4.77V254h.18q3-7.77,11.58-7.78,14.94,0,14.95,24.58T319,295.32q-9.17,0-11-8.13v22.63Zm25.81-39q0-20.16-10.08-20.16-4.77,0-7.69,4.6Q308,259.52,308,270.83q0,11.85,3.09,16.53a9,9,0,0,0,14.32,0q3.11-4.68,3.09-16.53"/><rect class="cls-1" x="352.64" y="231.13" width="5.3" height="63.13"/><path class="cls-1" d="M377.5,231.13h5.3v9h-5.3Zm0,16.19h5.3v46.94h-5.3Z"/><path class="cls-1" d="M428.76,278.7h5.31q-.61,7.6-4.55,12.11a13.12,13.12,0,0,1-10.39,4.51q-15.74,0-15.74-24.58t16.18-24.49q13.71,0,14.5,15h-5.31q-.88-10.6-9.19-10.61a8.29,8.29,0,0,0-7.43,3.8q-3.09,4.88-3.09,16.36,0,11.94,3.18,16.62A7.51,7.51,0,0,0,419,290.9q8.4,0,9.72-12.2"/><path class="cls-1" d="M457,261.28h-5.3q0-15,14.49-15,13.27,0,13.27,12.47v27.76q0,3.88,2.74,3.89h1.5v3.89a7.29,7.29,0,0,1-2.48.53,8.83,8.83,0,0,1-4.94-1.06c-1.24-.88-1.86-2.48-1.86-4.77v-1.6h-.18q-2.75,8-12.11,8-11.93,0-11.94-13.26,0-10.35,9.46-13l10-2.83q3.09-.89,4-2.56a14.52,14.52,0,0,0,.53-4.86q0-8.15-8.13-8.14-9,0-9,10.61m17.15,16.36v-9.9H474q-.61,1.77-5.66,3.09L463.94,272c-5.37,1.41-8,4.66-8,9.73a10.43,10.43,0,0,0,2,6.67,6.55,6.55,0,0,0,5.44,2.52,9.8,9.8,0,0,0,7.91-3.54q3-3.53,3-9.72"/><path class="cls-1" d="M522.54,294.26v-7.78h-.18a11.43,11.43,0,0,1-4.19,6.45,11.76,11.76,0,0,1-7.3,2.39q-15,0-15-24.58T511,246.25q9.15,0,11,8.14V231.13h5.31v63.13Zm-21-23.52q0,11.85,3.18,16.62a7.86,7.86,0,0,0,7.08,3.54,8.06,8.06,0,0,0,7.16-3.54q3.09-4.68,3.08-16.62t-3.08-16.53a8.06,8.06,0,0,0-7.16-3.54,7.86,7.86,0,0,0-7.08,3.54q-3.18,4.68-3.18,16.53"/><path class="cls-1" d="M551.9,261.28h-5.31q0-15,14.5-15,13.26,0,13.26,12.47v27.76q0,3.88,2.74,3.89h1.5v3.89a7.24,7.24,0,0,1-2.47.53,8.93,8.93,0,0,1-5-1.06c-1.23-.88-1.85-2.48-1.85-4.77v-1.6h-.18q-2.73,8-12.11,8-11.94,0-11.93-13.26,0-10.35,9.45-13l10-2.83c2.06-.59,3.38-1.44,4-2.56a14.6,14.6,0,0,0,.52-4.86q0-8.15-8.13-8.14-9,0-9,10.61M569,277.64v-9.9h-.17q-.61,1.77-5.66,3.09L558.79,272q-8,2.11-8,9.73a10.49,10.49,0,0,0,2,6.67,6.56,6.56,0,0,0,5.44,2.52,9.78,9.78,0,0,0,7.91-3.54q3-3.53,3-9.72"/><path class="cls-1" d="M247.12,90.92h4v44.7h-4Z"/><path class="cls-1" d="M266,102.38h3.38V107h.13a9.32,9.32,0,0,1,8.51-5.38c5.07,0,8.51,2.63,8.51,8.89v25.1H282.8v-24c0-4.57-1.88-6.82-5.7-6.82-4.38,0-7.33,3.38-7.33,8.51v22.35H266Z"/><path class="cls-1" d="M306.58,119.09c-4.69-1.81-6.38-4.57-6.38-7.88,0-6.83,4.25-9.58,9.89-9.58,6.26,0,9.14,3.19,9.14,9.26v.94h-3.76v-.94c0-4.32-2-6.13-5.45-6.13-4.38,0-6.07,2.32-6.07,5.63,0,2.32.76,4.13,4.51,5.57l5.45,2.07c4.5,1.69,6.2,4.82,6.2,8.45,0,5.7-3.26,9.89-10.27,9.89-6.83,0-10.21-2.81-10.21-10.33V125h3.76v.88c0,4.88,2.13,7.38,6.39,7.38,4,0,6.57-2.25,6.57-6,0-2.94-1.19-4.81-4.51-6.13Z"/><path class="cls-1" d="M334.56,105.51H330v-3.13h4.56v-9.2h3.76v9.2h5.89v3.13h-5.89v23.85c0,2.63,1.13,3.51,3.57,3.51a7.86,7.86,0,0,0,2.32-.38v3.13a6.25,6.25,0,0,1-2.63.38c-5.08,0-7-1.38-7-5.83Z"/><path class="cls-1" d="M356,90.92h3.75v6.39H356Zm0,11.46h3.75v33.24H356Z"/><path class="cls-1" d="M376.19,105.51h-4.57v-3.13h4.57v-9.2H380v9.2h5.88v3.13H380v23.85c0,2.63,1.13,3.51,3.57,3.51a7.75,7.75,0,0,0,2.31-.38v3.13a6.22,6.22,0,0,1-2.63.38c-5.07,0-7-1.38-7-5.83Z"/><path class="cls-1" d="M397.41,102.38h3.76v23.41c0,5.39,1.81,7.45,5.76,7.45,4.26,0,7.26-3.38,7.26-8.51V102.38H418v33.24h-3.38V131h-.13a9.33,9.33,0,0,1-8.51,5.38c-5.07,0-8.52-2.63-8.52-8.89Z"/><path class="cls-1" d="M434.1,105.51h-4.57v-3.13h4.57v-9.2h3.75v9.2h5.89v3.13h-5.89v23.85c0,2.63,1.13,3.51,3.57,3.51a7.86,7.86,0,0,0,2.32-.38v3.13a6.25,6.25,0,0,1-2.63.38c-5.08,0-7-1.38-7-5.83Z"/><path class="cls-1" d="M465,101.63c7.33,0,11.46,5.82,11.46,17.34s-4.13,17.4-11.46,17.4-11.45-5.82-11.45-17.4S457.7,101.63,465,101.63Zm0,31.61c4.19,0,7.45-3.63,7.45-14.27s-3.26-14.21-7.45-14.21-7.45,3.63-7.45,14.21S460.83,133.24,465,133.24Z"/></g></g></svg>